<?xml version="1.0" encoding="utf-8"?>
<!-- Generator: Adobe Illustrator 16.0.0, SVG Export Plug-In . SVG Version: 6.00 Build 0)  -->
<!DOCTYPE svg PUBLIC "-//W3C//DTD SVG 1.1//EN" "http://www.w3.org/Graphics/SVG/1.1/DTD/svg11.dtd">
<svg version="1.1" xmlns="http://www.w3.org/2000/svg" xmlns:xlink="http://www.w3.org/1999/xlink" x="0px" y="0px" width="57.6px"
	 height="57.6px" viewBox="8.284 3.84 57.6 57.6" enable-background="new 8.284 3.84 57.6 57.6" xml:space="preserve">
<g id="Layer_2">
	<path fill="#FFFFFF" stroke="#FFFFFF" stroke-miterlimit="10" d="M64.832,52.815c0,3.509-2.955,6.353-6.6,6.353H16.433
		c-3.645,0-6.6-2.844-6.6-6.353V12.574c0-3.509,2.955-6.354,6.6-6.354h41.799c3.645,0,6.6,2.845,6.6,6.354V52.815z"/>
</g>
<g id="Layer_0_xA0_Image_1_">
	<g>
		<path fill="#FFFFFF" stroke="#FFFFFF" stroke-miterlimit="10" d="M37.326,14.81c-0.088,0.002-0.174,0.004-0.262,0.005
			c-0.407,1.038-0.858,2.063-1.209,3.119c-0.282,0.851-0.784,1.157-1.676,1.199c-2.952,0.138-5.903,0.334-8.849,0.573
			c-0.781,0.063-1.579,0.271-2.309,0.563c-2.691,1.081-3.986,3.245-4.274,6.012c-0.12,1.146-0.51,1.82-1.613,2.211
			c-1.073,0.379-2.082,0.941-3.335,1.524c1.31,0.522,2.439,0.911,3.504,1.432c0.395,0.192,0.831,0.655,0.915,1.064
			c0.241,1.168,0.311,2.372,0.45,3.562c0.249,2.129,0.945,4.113,1.909,6.018c1.278,2.525,3.333,3.936,6.131,4.199
			c2.504,0.236,5.016,0.421,7.528,0.544c0.846,0.041,1.317,0.31,1.583,1.124c0.358,1.097,0.82,2.159,1.3,3.399
			c0.521-1.14,1.015-2.13,1.426-3.152c0.366-0.914,0.904-1.346,1.961-1.395c2.514-0.116,5.021-0.345,7.523-0.62
			c3.044-0.336,5.236-1.766,6.47-4.751c1.076-2.605,1.403-5.315,1.711-8.044c0.125-1.111,0.515-1.751,1.578-2.095
			c1.052-0.34,2.062-0.813,3.269-1.3c-1.283-0.586-2.347-1.144-3.461-1.56c-0.975-0.363-1.25-1.015-1.4-1.984
			c-0.199-1.279-0.447-2.633-1.057-3.747c-1.133-2.071-3.232-2.781-5.445-2.987c-3.063-0.285-6.135-0.481-9.209-0.614
			c-0.914-0.04-1.383-0.393-1.715-1.171C38.314,16.885,37.811,15.852,37.326,14.81z"/>
		<path fill="#231F20" d="M37.326,14.81c0.482,1.042,0.988,2.075,1.441,3.131c0.332,0.778,0.801,1.132,1.715,1.171
			c3.074,0.133,6.146,0.329,9.209,0.614c2.213,0.206,4.313,0.917,5.445,2.987c0.608,1.113,0.856,2.468,1.057,3.747
			c0.15,0.97,0.427,1.621,1.4,1.984c1.114,0.416,2.178,0.974,3.461,1.56c-1.207,0.486-2.217,0.959-3.269,1.3
			c-1.063,0.343-1.453,0.982-1.578,2.095c-0.308,2.729-0.635,5.438-1.711,8.044c-1.233,2.985-3.427,4.415-6.47,4.751
			c-2.502,0.275-5.012,0.505-7.523,0.62c-1.057,0.049-1.595,0.479-1.961,1.395c-0.411,1.022-0.904,2.014-1.426,3.152
			c-0.48-1.24-0.942-2.304-1.3-3.399c-0.266-0.814-0.737-1.083-1.583-1.124c-2.513-0.123-5.024-0.308-7.528-0.544
			c-2.797-0.265-4.853-1.674-6.131-4.199c-0.964-1.903-1.66-3.889-1.909-6.018c-0.139-1.189-0.209-2.394-0.45-3.562
			c-0.084-0.409-0.52-0.872-0.915-1.064c-1.065-0.521-2.195-0.909-3.504-1.432c1.253-0.583,2.262-1.146,3.335-1.524
			c1.103-0.391,1.494-1.066,1.613-2.211c0.289-2.767,1.583-4.931,4.274-6.012c0.73-0.293,1.528-0.5,2.309-0.563
			c2.946-0.239,5.897-0.436,8.849-0.573c0.892-0.042,1.394-0.35,1.676-1.199c0.351-1.057,0.801-2.081,1.209-3.119
			C37.152,14.813,37.238,14.812,37.326,14.81z"/>
		<path fill="#FFFFFF" d="M37.17,42.881c-2.399,0-4.799,0.05-7.197-0.013c-3.05-0.081-3.631-0.689-3.672-3.705
			c-0.036-2.527-0.033-5.055-0.033-7.583c0-1.911,0.862-2.941,2.777-3.258c0.881-0.146,1.78-0.211,2.672-0.259
			c4.254-0.227,8.507-0.189,12.75,0.197c0.631,0.057,1.277,0.19,1.866,0.416c1.063,0.406,1.753,1.147,1.743,2.38
			c-0.024,2.942,0.004,5.888-0.076,8.829c-0.059,2.096-0.766,2.851-2.867,2.929c-2.65,0.098-5.309,0.022-7.963,0.022
			C37.17,42.851,37.17,42.866,37.17,42.881z"/>
	</g>
</g>
<g id="eyes">
	<path fill="#FFFFFF" d="M26.776,25.182c-0.035,1.063-1.066,2.01-2.162,1.988c-1.108-0.023-2.045-1.005-2.014-2.112
		c0.031-1.102,1.04-2.044,2.132-1.99C25.828,23.123,26.811,24.139,26.776,25.182z"/>
	<path fill="#FFFFFF" d="M50.941,25.121c-0.014,1.108-0.974,2.079-2.047,2.066c-1.09-0.012-2.215-1.107-2.185-2.127
		c0.03-0.987,1.112-1.971,2.185-1.984C50.001,23.06,50.956,24.015,50.941,25.121z"/>
</g>
</svg>
