<?xml version="1.0" encoding="utf-8"?>
<!-- Generator: Adobe Illustrator 16.0.0, SVG Export Plug-In . SVG Version: 6.00 Build 0)  -->
<!DOCTYPE svg PUBLIC "-//W3C//DTD SVG 1.1//EN" "http://www.w3.org/Graphics/SVG/1.1/DTD/svg11.dtd">
<svg version="1.1" id="Layer_1" xmlns="http://www.w3.org/2000/svg" xmlns:xlink="http://www.w3.org/1999/xlink" x="0px" y="0px"
	 width="400px" height="400px" viewBox="0 0 400 400" enable-background="new 0 0 400 400" xml:space="preserve">
<g>
	<path fill-rule="evenodd" clip-rule="evenodd" fill="#FFFFFF" d="M202.313,2.072C93.326,2.097,5.068,90.377,4.952,199.482
		C4.835,308.563,93.316,397.076,202.475,397.076c109.167,0,197.658-88.518,197.525-197.587
		C399.869,90.221,311.574,2.046,202.313,2.072z"/>
	<path fill-rule="evenodd" clip-rule="evenodd" d="M202.313,2.072C311.574,2.046,399.869,90.221,400,199.489
		c0.133,109.069-88.358,197.587-197.525,197.587c-109.158,0-197.639-88.513-197.523-197.594
		C5.068,90.377,93.326,2.097,202.313,2.072z M304.113,296.54c0-1.163,0-1.929,0-2.693c-0.004-24.455,0.07-48.909-0.072-73.364
		c-0.029-5.173-0.483-10.405-1.361-15.503c-4.049-23.516-18.562-40.308-43.963-42.267c-17.349-1.337-31.791,4.073-42.114,18.678
		c-0.415,0.587-0.902,1.126-1.941,2.417c0-6.518,0-12.18,0-17.891c-14.717,0-29.016,0-43.231,0c0,43.693,0,87.125,0,130.557
		c14.463,0,28.682,0,43.224,0c0-1.514,0-2.818,0-4.122c0-22.131-0.009-44.263,0.013-66.394c0.002-2.32,0.108-4.645,0.278-6.959
		c0.568-7.695,4.348-13.651,10.49-18.008c12.696-9.004,29.355-3.234,33.298,11.725c1.333,5.057,1.711,10.481,1.758,15.746
		c0.188,21.354,0.079,42.713,0.079,64.069c0,1.291,0,2.581,0,4.009C275.255,296.54,289.487,296.54,304.113,296.54z M146.664,296.515
		c0-43.785,0-87.207,0-130.665c-14.479,0-28.699,0-43.031,0c0,43.627,0,87.057,0,130.665
		C118.032,296.515,132.248,296.515,146.664,296.515z M124.933,147.898c2.188-0.274,4.399-0.43,6.56-0.844
		c10.56-2.024,17.748-10.313,18.327-21.029c0.559-10.309-5.956-19.702-16.132-22.35c-3.87-1.007-8.113-1.211-12.124-0.919
		c-9.971,0.725-17.854,7.511-20.042,16.613C97.854,134.63,108.604,147.665,124.933,147.898z"/>
	<path fill-rule="evenodd" clip-rule="evenodd" fill="#FFFFFF" d="M304.113,296.54c-14.626,0-28.858,0-43.543,0
		c0-1.428,0-2.718,0-4.009c0-21.356,0.109-42.715-0.079-64.069c-0.047-5.265-0.425-10.689-1.758-15.746
		c-3.942-14.959-20.602-20.729-33.298-11.725c-6.143,4.356-9.922,10.313-10.49,18.008c-0.17,2.314-0.276,4.639-0.278,6.959
		c-0.021,22.131-0.013,44.263-0.013,66.394c0,1.304,0,2.608,0,4.122c-14.542,0-28.761,0-43.224,0c0-43.432,0-86.863,0-130.557
		c14.215,0,28.514,0,43.231,0c0,5.711,0,11.373,0,17.891c1.039-1.291,1.526-1.83,1.941-2.417
		c10.323-14.604,24.766-20.015,42.114-18.678c25.401,1.959,39.914,18.751,43.963,42.267c0.878,5.098,1.332,10.33,1.361,15.503
		c0.143,24.455,0.068,48.909,0.072,73.364C304.113,294.611,304.113,295.377,304.113,296.54z"/>
	<path fill-rule="evenodd" clip-rule="evenodd" fill="#FFFFFF" d="M146.664,296.515c-14.416,0-28.631,0-43.031,0
		c0-43.608,0-87.038,0-130.665c14.332,0,28.552,0,43.031,0C146.664,209.308,146.664,252.729,146.664,296.515z"/>
	<path fill-rule="evenodd" clip-rule="evenodd" fill="#FFFFFF" d="M124.933,147.898c-16.33-0.233-27.079-13.269-23.41-28.528
		c2.188-9.103,10.07-15.889,20.042-16.613c4.01-0.292,8.254-0.088,12.124,0.919c10.176,2.647,16.691,12.041,16.132,22.35
		c-0.579,10.716-7.768,19.005-18.327,21.029C129.332,147.469,127.121,147.624,124.933,147.898z"/>
</g>
</svg>
