<?xml version="1.0" encoding="utf-8"?>
<!-- Generator: Adobe Illustrator 16.0.0, SVG Export Plug-In . SVG Version: 6.00 Build 0)  -->
<!DOCTYPE svg PUBLIC "-//W3C//DTD SVG 1.1//EN" "http://www.w3.org/Graphics/SVG/1.1/DTD/svg11.dtd">
<svg version="1.1" id="Layer_1" xmlns="http://www.w3.org/2000/svg" xmlns:xlink="http://www.w3.org/1999/xlink" x="0px" y="0px"
	 width="400px" height="400px" viewBox="0 0 400 400" enable-background="new 0 0 400 400" xml:space="preserve">
<g>
	<path fill-rule="evenodd" clip-rule="evenodd" d="M5,213.721c0-9.146,0-18.294,0-27.441c0.774-5.452,1.461-10.918,2.333-16.355
		C20.136,90.192,78.467,27.397,156.983,9.125C166.941,6.808,177.174,5.68,187.28,4c9.147,0,18.292,0,27.441,0
		c8.996,1.397,18.164,2.106,26.961,4.3c79.23,19.757,129.641,69.005,150.25,148.185c2.527,9.714,3.418,19.854,5.068,29.795
		c0,9.146,0,18.294,0,27.441c-0.77,5.447-1.447,10.91-2.324,16.342c-12.859,79.8-71.057,142.445-149.664,160.809
		c-9.953,2.324-20.188,3.449-30.291,5.129c-9.148,0-18.294,0-27.441,0c-5.472-0.775-10.959-1.459-16.415-2.34
		C91.027,380.752,28.547,322.668,10.121,243.949C7.796,234.017,6.678,223.803,5,213.721z M61.911,290.285
		c1.322,0.876,2.602,1.827,3.973,2.619c20.368,11.739,42.187,19.032,65.642,21.175c49.006,4.479,92.858-7.85,128.938-42.062
		c35.666-33.818,53.01-76.059,53.266-125.221c0.018-3.232,0.787-5.423,3.428-7.455c4.125-3.174,8.114-6.617,11.691-10.392
		c4.482-4.731,8.49-9.911,13.396-15.718c-10.844,2.927-20.273,5.473-29.704,8.019c-0.212-0.471-0.425-0.942-0.638-1.413
		c10.146-7.679,18.275-16.81,22.492-30.206c-2.294,1.096-3.537,1.801-4.858,2.302c-8.978,3.401-17.983,6.732-26.956,10.146
		c-3.287,1.25-5.557,0.252-8.223-2.07c-17.195-14.982-37.014-19.339-58.412-11.561c-22.102,8.035-34.989,24.441-37.988,47.927
		c-0.809,6.335-0.123,12.86-0.123,19.811c-47.963-3.418-87.228-23.717-119.056-60.73c-13.91,30.342-8.096,55.443,16.236,76.776
		c-0.28,0.427-0.56,0.854-0.84,1.281c-7.7-2.165-15.4-4.33-23.618-6.639c1.831,28.847,16.901,47.25,44.046,56.543
		c-0.174,0.412-0.349,0.826-0.523,1.238c-7.364,0-14.729,0-22.963,0c9.628,24.781,27.198,37.555,53.746,40.586
		C119.482,284.15,92.231,291.543,61.911,290.285z"/>
	<path fill-rule="evenodd" clip-rule="evenodd" fill="#FFFFFF" d="M61.911,290.285c30.32,1.258,57.571-6.135,82.954-25.043
		c-26.548-3.031-44.118-15.805-53.746-40.586c8.234,0,15.599,0,22.963,0c0.174-0.412,0.349-0.826,0.523-1.238
		c-27.145-9.294-42.216-27.697-44.046-56.543c8.217,2.309,15.917,4.474,23.618,6.639c0.28-0.428,0.56-0.854,0.84-1.281
		C70.684,150.899,64.87,125.798,78.78,95.456c31.829,37.013,71.093,57.312,119.056,60.73c0-6.951-0.686-13.476,0.123-19.811
		c2.999-23.486,15.887-39.893,37.988-47.927c21.398-7.778,41.217-3.421,58.412,11.561c2.666,2.323,4.936,3.321,8.223,2.07
		c8.973-3.414,17.979-6.745,26.956-10.146c1.321-0.5,2.564-1.206,4.858-2.302c-4.217,13.396-12.346,22.527-22.492,30.206
		c0.213,0.471,0.426,0.942,0.638,1.413c9.431-2.545,18.86-5.091,29.704-8.019c-4.906,5.807-8.914,10.987-13.396,15.718
		c-3.577,3.775-7.566,7.218-11.691,10.392c-2.641,2.032-3.41,4.223-3.428,7.455c-0.256,49.162-17.6,91.402-53.266,125.221
		c-36.08,34.212-79.932,46.541-128.938,42.062c-23.456-2.143-45.274-9.436-65.642-21.175
		C64.513,292.112,63.233,291.161,61.911,290.285z"/>
</g>
</svg>
